<svg height="64" viewBox="0 0 64 64" width="64" xmlns="http://www.w3.org/2000/svg"><path d="m23.4 38c.21-.08.25-.13.25-.5s-.42-.29-1.17-1.13a7.61 7.61 0 0 1 -1.91-4.83c-.21-2.62 2.12-5.42 2.54-6.17s0-1.68-.54-1.66c-6.34.21-7 5.5-7.13 6.79s-.08 4.92 2.29 6.54a7.8 7.8 0 0 0 5.67.96zm-5.87-10.16c.66-1.33 1.62-2.83 3.62-3.12.46-.07.75.29.54.46s-2.71 3-2.58 6 .89 4.33 1.37 4.82.71.71.59.83a4.7 4.7 0 0 1 -3.79-2.2c-1.28-1.99-.42-5.45.25-6.79zm24.66-3.37c.13 0 .21-.17.21-.42a4.3 4.3 0 0 0 -1.87-1.37.46.46 0 0 0 -.17.66 13 13 0 0 0 1.83 1.13zm-1.37 3.12c.16.09 3.5 1.75 3.62 1.75s.13-.25.13-.5a18.48 18.48 0 0 0 -3.71-2.08c-.21.04-.21.75-.04.83zm0 2.84c.21.21 3.83 2.29 4 2.33s.08-.33.08-.58a23.55 23.55 0 0 0 -3.83-2.5c-.13 0-.46.54-.25.75zm.08 2.33s-.33.58-.29.79a43.57 43.57 0 0 0 3.87 2.38s.3-.34.25-.54a22.92 22.92 0 0 0 -3.83-2.63zm3.17 6.67c.16.08.21-.29.29-.46a55.13 55.13 0 0 0 -4.5-3.21s-.46.54-.46.71 4.5 2.87 4.67 2.96zm-1.59 2.46a2 2 0 0 0 .46-.38 29.46 29.46 0 0 0 -4-3.25c-.25 0-.54.29-.5.5s4.04 3.13 4.04 3.13zm-5.12-1.59a.94.94 0 0 0 -.46.59 33.32 33.32 0 0 0 3.42 2.58 2.3 2.3 0 0 0 .46-.38 18.9 18.9 0 0 0 -3.42-2.79zm-8-15.54c.12.08-.71 1.17-.71 1.17s.33.5.46.5a2.22 2.22 0 0 0 .75-.67c.08-.17.58.71.58.71l.63-.25a10.27 10.27 0 0 1 -.46-1.46c0-.25 1.42 0 1.42 0a1 1 0 0 0 .16-.42c0-.16-.41-.41-.41-.41s.2-.59.08-.75-1.29.46-1.29.46-.09-1.05-.09-1.21-.29-.21-.58-.13-.37 1.5-.37 1.5a3.31 3.31 0 0 0 -1-.08.88.88 0 0 0 -.21.58c0 .17.91.38 1.04.46zm5.45 13s.19.3.27.3a1.36 1.36 0 0 0 .44-.4c0-.1.35.42.35.42l.37-.15a5.8 5.8 0 0 1 -.24-.83c0-.15.84 0 .84 0a.62.62 0 0 0 .1-.24c0-.1-.25-.25-.25-.25s.13-.35.05-.44-.76.27-.76.27 0-.62 0-.72-.17-.12-.34-.07-.23.89-.23.89-.5-.11-.59 0a.54.54 0 0 0 -.12.34c0 .1.54.22.62.27s-.51.64-.51.64zm-11.63 2.3-.17.59c0 .12-.5-.09-.66-.13s-.17.25-.17.5.83.42.83.42l-.66.66a7.12 7.12 0 0 0 .7.46c.13 0 .46-.54.46-.54l.59.79h.41l-.12-.92h.66a2 2 0 0 0 .05-.75c-.09-.21-1-.21-1-.21s-.17-1-.38-1.09-.37.16-.54.25zm5.07-6.16s.25.91.5.91h.5l-.12-1s.62-.13 1-.17 0-.38 0-.54-.84-.09-1.13-.09-.21-.66-.21-.79-.7.21-.87.29v.59h-.37a3.68 3.68 0 0 0 -.05.42c.04.24.75.41.75.41zm7.75-4.51s.25.91.5.91h.5l-.13-1s.63-.12 1-.16 0-.38 0-.54-.83-.09-1.12-.09-.21-.66-.21-.79-.71.21-.88.29v.59h-.37s0 .29 0 .41.71.38.71.38zm-5.88 9.89c-.08-.2-.58-.16-.75-.08a2 2 0 0 0 -.12 1c0 .25-.21.12-.5.33s-.05.88-.05.88l.8.33.37-.54a4 4 0 0 1 .38.5c.08.17.75-.29.75-.29l.4-.41-.58-1.21s-.59-.3-.67-.51zm25.13-25.1s1.75-3.79-.71-4.59-3.92.84-3.84 2.59 2.38 2.5 2.38 2.5.58 12.5.58 12.66a9.2 9.2 0 0 1 -2.16.09l-.09-2c0-.88-1.46-1.25-1.46-1.25s-1.16-6.54-3.16-8.63-5.39-6.79-13.56-7.29-12 .83-17.58 4.92-6.46 11.82-6.46 11.82c-.37 0-1.46.08-1.75.58s.13 6.79.34 7.38 2.75 1.21 2.75 1.21a27.18 27.18 0 0 0 1 2.91c.66 1.67 1.79 4 1.79 4s-2.25 4.71-2 5.34 3.2 4 7.5 6.5 12.16 4.25 19 1.7 12.71-8 12.75-8.37-2.5-6.83-2.5-6.83a5.33 5.33 0 0 0 1-2.21 14.19 14.19 0 0 0 .41-3.46s1.67-.33 2-.88a9.55 9.55 0 0 0 .21-3s3.63.29 4 .2.92-.25 1-.83-1.41-15.06-1.41-15.06zm-22.81-4.29a13.82 13.82 0 0 1 .13 2.25c-.13 0-1.25.12-1.25.12l-.32-2.37a14.11 14.11 0 0 1 1.44 0zm-5.71.2a11.16 11.16 0 0 1 2-.08c0 .13.25 3.46.13 3.5a6.06 6.06 0 0 1 -1.71.13 17.53 17.53 0 0 1 -.42-3.55zm-3.79 1.09s.34 1.5.13 1.58a7.31 7.31 0 0 1 -1.21.08l-.25-1.16c.17-.09 1.33-.5 1.33-.5zm-12.25 21.46a1.47 1.47 0 0 1 -1.12-.13c-.13-.17-.71-5.67-.42-5.92 0 0 1.54-.16 1.58.13a44.78 44.78 0 0 1 -.04 5.92zm1.5-7.46s-1.41.12-1.54 0a17.84 17.84 0 0 1 3.71-8.18 16.24 16.24 0 0 1 6.25-4.92s.08 1.63.29 1.71a10.19 10.19 0 0 0 3.17-.17c.16-.25-.25-2.91-.13-3a6.7 6.7 0 0 1 1.84-.33 31.61 31.61 0 0 0 .29 4 6.72 6.72 0 0 0 2.25.21 3.27 3.27 0 0 0 1.75-.5c0-.13-.54-4-.42-4a3.84 3.84 0 0 1 .42-.08s.21 3.54.46 3.5 3.16-.13 3.12-.46-.46-3.25-.21-3.21a16.34 16.34 0 0 1 8.71 3.62c3.85 3.27 5.85 10.22 5.75 10.31a5.21 5.21 0 0 1 -.71.25s-5.46-5.63-10.66-6.46-9.46-1.38-14.92 1.12a35 35 0 0 0 -9.42 6.59zm.21 9.08c0-.29 0-7.12 0-7.21a39.91 39.91 0 0 1 8.88-6.46c4.16-2 9.58-2.08 13.33-1.45s7.08 3.08 9.42 4.7 2.54 2.21 2.54 2.21a62.32 62.32 0 0 0 .29 6.5 4.31 4.31 0 0 0 .75 1 16.23 16.23 0 0 1 -1.61 4.5 16 16 0 0 1 -3.83 5 25.72 25.72 0 0 1 -3.27 1.95s-2.83-2.75-3-2.79-.83.46-.71.71 3.13 2.41 2.88 2.58a24.57 24.57 0 0 1 -8.59 1.83 18.52 18.52 0 0 1 -11.87-4.58 24 24 0 0 1 -5.21-8.49zm3.29 13.74a10.88 10.88 0 0 1 -2.54-2.08 11.66 11.66 0 0 1 1.33-3.21c.23.15 1.34 1.42 2 2a9.93 9.93 0 0 0 1 .79s-1.54 2.55-1.79 2.5zm1.13 1c-.13 0-.63-.08-.5-.25s1.58-3 1.75-3.16.5.12.41.25-1.54 3.21-1.66 3.21zm1.12 1c-.16-.08-.46-.16-.46-.29s1.59-3.25 1.59-3.25l.41.25a22.93 22.93 0 0 1 -1.54 3.34zm30.46-4.16a1.74 1.74 0 0 1 -.46.42 21.86 21.86 0 0 0 -1.79-2.92c-.21 0-.67.71-.67.71s1.67 2.46 1.5 2.71a5.08 5.08 0 0 1 -1.16.75 15.42 15.42 0 0 0 -1.42-2.42c-.25-.08-.92.42-.83.63s1.54 2.46 1.54 2.46-.83.75-1 .66-1.21-2.16-1.37-2.16-.67.58-.67.58 1.54 2 1.37 2.17l-.75.58-1.41-2.12s-.63.25-.63.41 1.46 2.38 1.38 2.5-2.46 2-7.75 2.63-8.63.12-11.54-.84-4.05-1.87-4.09-2a14.52 14.52 0 0 1 1.46-3.5 17.88 17.88 0 0 0 7.92 2.09c4.83.2 6.54.12 10.79-2a21.89 21.89 0 0 0 6.5-4.5 12.31 12.31 0 0 1 1.46-1.25s1.7 4.25 1.62 4.41zm1.38-14.12a1.28 1.28 0 0 1 -1.09.12c-.08-.12-.08-6.29 0-6.33s1.08.13 1.13.38a47.25 47.25 0 0 1 -.04 5.83zm3.22-18.29a1.5 1.5 0 0 1 .21-2.79c1-.36 1.54.41 1.67 1.45a1.31 1.31 0 0 1 -1.88 1.34zm2.59 15.29a11.69 11.69 0 0 1 -3.63.12c-.16-.12 0-.58 0-.58s2.79 0 2.79-.25-.5-8.42-.25-8.62.3.08.42.33a80.14 80.14 0 0 1 .65 9z" fill="#000"/></svg>