<?xml version="1.0" encoding="utf-8"?>
<!-- Uploaded to SVGRepo https://www.svgrepo.com -->
<svg version="1.1" id="Layer_1" xmlns="http://www.w3.org/2000/svg" xmlns:xlink="http://www.w3.org/1999/xlink" x="0px" y="0px"
	 width="204px" height="260px" viewBox="0 0 204 260" style="enable-background:new 0 0 204 260;" xml:space="preserve">
<path d="M102,58.4c-55.1,0-99.8,44.7-99.8,99.8c0,55.1,44.7,99.8,99.8,99.8c55.1,0,99.8-44.7,99.8-99.8
	C201.8,103.1,157.1,58.4,102,58.4z M45.5,134c0-8.6,3.5-16.1,8.8-20.2c-1.4,1.9-2.2,4.2-2.2,6.7c0,6.3,5.1,11.4,11.4,11.4
	s11.4-5.1,11.4-11.4c0-2.5-0.8-4.8-2.2-6.7c5.2,4.1,8.8,11.6,8.8,20.2c0,13-8,23.6-17.9,23.6C53.5,157.6,45.5,147,45.5,134z
	 M102,227.9c-23.9,0-43.2-19.1-43.6-42.9h87.3C145.2,208.7,125.9,227.9,102,227.9z M140.6,157.6c-9.9,0-17.9-10.5-17.9-23.6
	c0-8.6,3.5-16.1,8.8-20.2c-1.4,1.9-2.2,4.2-2.2,6.7c0,6.3,5.1,11.4,11.4,11.4s11.4-5.1,11.4-11.4c0-2.5-0.8-4.8-2.2-6.7
	c5.2,4.1,8.8,11.6,8.8,20.2C158.5,147,150.5,157.6,140.6,157.6z M108.2,46.9H96.5V2h11.8V46.9z M148.3,56.3L137.4,52l16-40.1
	l10.9,4.4L148.3,56.3z M179,74.5l-9.2-7.3l14.2-18l9.2,7.3L179,74.5z M58.1,56.4l-8.6-20.5l10.8-4.6l8.6,20.5L58.1,56.4z M29.3,76.3
	l-25.5-33l9.3-7.2l25.5,33L29.3,76.3z"/>
</svg>
